<?xml version="1.0" encoding="UTF-8"?>
<svg id="Layer_1" data-name="Layer 1" xmlns="http://www.w3.org/2000/svg" viewBox="0 0 210.75 91.1">
  <defs>
    <style>
      .cls-1 {
        fill: #aa8b05;
      }

      .cls-2 {
        fill: #231f20;
      }

      .cls-3 {
        fill: #fcd534;
      }
    </style>
  </defs>
  <polygon class="cls-3" points="210.75 29.27 210.75 91.1 0 91.1 0 0 181.48 0 210.75 29.27"/>
  <polygon class="cls-1" points="210.75 29.27 210.75 29.3 181.45 29.3 181.45 0 181.48 0 210.75 29.27"/>
  <path class="cls-2" d="M164.89,34.54l-9.39,36.62h-.07l-8-31.93-.18-.73c-.16-.52-.39-.99-.7-1.43-.55-.79-1.41-1.41-2.59-1.86-1.18-.44-2.84-.67-4.99-.67h-11.66c-2.39,0-4.19-.45-5.39-1.36-1.2-.91-1.8-2.61-1.8-5.1v-8.22h-11.15v4.18c0,2.6.27,4.6.81,6.02.54,1.42,1.29,2.45,2.24,3.12.95.66,2.07,1.05,3.34,1.17,1.27.12,2.62.18,4.04.18h-25.24c-.73,0-1.4-.04-2.02-.13-1.42-.19-2.54-.6-3.37-1.23-1.2-.91-1.8-2.61-1.8-5.1v-8.22h-11.15v4.18c0,2.6.27,4.6.81,6.02.54,1.42,1.29,2.45,2.24,3.12.95.66,2.07,1.05,3.34,1.17,1.27.12,2.62.18,4.04.18h-38.31c-.32,0-.65,0-.98,0-6.63,0-11.77,1.49-15.42,4.48-3.65,2.99-5.47,7.63-5.47,13.94,0,3.06.52,5.73,1.55,8.01,1.03,2.28,2.48,4.19,4.34,5.72,1.86,1.53,4.07,2.67,6.63,3.42,2.56.75,5.35,1.13,8.36,1.13,6.44,0,11.48-1.52,15.1-4.55,3.62-3.03,5.43-7.61,5.43-13.72,0-3.24-.46-6.03-1.38-8.36-.11-.28-.22-.55-.34-.81h10.12v15.49c0,3.67.88,6.58,2.64,8.73,1.76,2.15,4.35,3.23,7.78,3.23h11.3v-10.42h-7.27c-2.25,0-3.37-1.42-3.37-4.26v-12.77h22.09v15.49c0,3.67.88,6.58,2.64,8.73,1.76,2.15,4.35,3.23,7.78,3.23h11.3v-10.42h-7.27c-2.25,0-3.37-1.42-3.37-4.26v-12.77h16.64l6.92,27.45h23.34l9.54-36.69h-11.67ZM54.09,59.38c-1.67,1.51-4.05,2.26-7.16,2.26s-5.73-.65-7.44-1.94c-1.72-1.29-2.58-3.56-2.58-6.81,0-2.78.89-4.92,2.68-6.42,1.79-1.5,4.23-2.26,7.34-2.26s5.43.7,7.13,2.12c1.69,1.41,2.54,3.6,2.54,6.56s-.84,4.98-2.51,6.49Z"/>
</svg>