<?xml version="1.0" encoding="UTF-8"?>
<svg xmlns="http://www.w3.org/2000/svg" viewBox="35.36 35.55 58.5 58.13">
  <polygon fill="#231f20" points="93.86 54.24 93.86 93.68 35.36 93.68 35.36 35.55 75.17 35.55 75.17 54.24 93.86 54.24"/>
  <polygon fill="#414042" points="93.86 54.22 93.86 54.24 75.17 54.24 75.17 35.55 75.19 35.55 93.86 54.22"/>
  <path fill="#fcd534" d="M78.76,69.03c0,4.3-1.22,7.57-3.65,9.81-2.44,2.25-5.94,3.37-10.51,3.37s-8.13-1.12-10.53-3.37c-2.4-2.25-3.6-5.52-3.6-9.81s1.23-7.63,3.69-9.85c2.46-2.22,5.95-3.33,10.47-3.33s8.01,1.09,10.46,3.26c2.45,2.17,3.67,5.48,3.67,9.93ZM72.88,68.96c0-1.18-.18-2.24-.55-3.18-.36-.94-.9-1.75-1.6-2.43-.7-.68-1.56-1.2-2.58-1.56-1.02-.36-2.18-.55-3.49-.55-2.66,0-4.72.7-6.16,2.11-1.44,1.41-2.17,3.3-2.17,5.69s.72,4.41,2.17,5.76c1.44,1.36,3.5,2.03,6.16,2.03,2.81,0,4.88-.72,6.22-2.15,1.33-1.43,2-3.34,2-5.73Z"/>
</svg>
